# xmcd CD database file
#
# Track frame offsets:
#	150
#	15530
#	27675
#	39412
#	51719
#	65519
#	77227
#	96357
#	114064
#	125705
#	144952
#	160751
#	172593
#	187013
#	200353
#	213290
#	226062
#	241036
#	251142
#	262735
#
# Disc length: 3709 seconds
#
# Revision: 1
# Processed by: cddbd v1.5.1PL0 Copyright (c) Steve Scherf et al.
# Submitted via: CDex 1.51
#
DISCID=0a0e7b14
DTITLE=Ronnie Dove - The Country Side of Ronnie Dove
DYEAR=1900
DGENRE=Country
TTITLE0=Just Call My Name
TTITLE1=Lilacs In Winter
TTITLE2=Funny Face
TTITLE3=White Silver Sands
TTITLE4=Livin' For Your Lovin'
TTITLE5=Cryin' Time
TTITLE6=Heart
TTITLE7=For The Good Times
TTITLE8=He Cries Like A Baby
TTITLE9=The Future's Not What It Used To Be
TTITLE10=A Short Walk From Heaven
TTITLE11=Things
TTITLE12=You're The Reason I'm Living
TTITLE13=You Win Again
TTITLE14=It's No Sin
TTITLE15=Just The Other Side Of Nowhere
TTITLE16=Angel In Your Eyes
TTITLE17=New Old Fashioned Love
TTITLE18=If I Cried Every Time You Hurt Me
TTITLE19=It's Only Make Believe
EXTD=
EXTT0=
EXTT1=
EXTT2=
EXTT3=
EXTT4=
EXTT5=
EXTT6=
EXTT7=
EXTT8=
EXTT9=
EXTT10=
EXTT11=
EXTT12=
EXTT13=
EXTT14=
EXTT15=
EXTT16=
EXTT17=
EXTT18=
EXTT19=
PLAYORDER=
